M48
; DRILL file KiCad 10.0.3 date 2026-05-22T00:41:50
; FORMAT={-:-/ absolute / metric / decimal}
; #@! TF.CreationDate,2026-05-22T00:41:50+02:00
; #@! TF.GenerationSoftware,Kicad,Pcbnew,10.0.3
; #@! TF.FileFunction,Plated,1,2,PTH
FMAT,2
METRIC
; #@! TA.AperFunction,Plated,PTH,ViaDrill
T1C0.300
; #@! TA.AperFunction,Plated,PTH,ComponentDrill
T2C0.600
; #@! TA.AperFunction,Plated,PTH,ComponentDrill
T3C0.900
; #@! TA.AperFunction,Plated,PTH,ComponentDrill
T4C1.500
%
G90
G05
T1
X29.0Y-38.0
X29.0Y-62.0
X30.0Y-48.0
X32.0Y-54.0
X34.352Y-58.852
X35.25Y-59.75
X36.056Y-53.556
X38.5Y-56.5
X39.5Y-49.0
X39.914Y-53.914
X40.5Y-50.0
X40.6Y-62.5
X41.5Y-61.0
X51.0Y-58.0
X53.5Y-66.1
X54.5Y-66.5
X54.575Y-63.5
X65.5Y-53.5
X65.5Y-61.0
X66.5Y-38.5
X68.5Y-57.768
X74.025Y-50.0
T3
X64.086Y-66.914
X65.5Y-65.5
X66.914Y-64.086
T4
X62.601Y-68.399
X68.399Y-62.601
T2
G00X45.68Y-68.7
M15
G01X45.68Y-69.3
M16
G05
G00X45.68Y-72.5
M15
G01X45.68Y-73.1
M16
G05
G00X54.32Y-68.7
M15
G01X54.32Y-69.3
M16
G05
G00X54.32Y-72.5
M15
G01X54.32Y-73.1
M16
G05
M30
