%TF.GenerationSoftware,KiCad,Pcbnew,10.0.3*%
%TF.CreationDate,2026-05-21T01:27:16+02:00*%
%TF.ProjectId,strobo,7374726f-626f-42e6-9b69-6361645f7063,rev?*%
%TF.SameCoordinates,Original*%
%TF.FileFunction,Paste,Top*%
%TF.FilePolarity,Positive*%
%FSLAX46Y46*%
G04 Gerber Fmt 4.6, Leading zero omitted, Abs format (unit mm)*
G04 Created by KiCad (PCBNEW 10.0.3) date 2026-05-21 01:27:16*
%MOMM*%
%LPD*%
G01*
G04 APERTURE LIST*
G04 Aperture macros list*
%AMRoundRect*
0 Rectangle with rounded corners*
0 $1 Rounding radius*
0 $2 $3 $4 $5 $6 $7 $8 $9 X,Y pos of 4 corners*
0 Add a 4 corners polygon primitive as box body*
4,1,4,$2,$3,$4,$5,$6,$7,$8,$9,$2,$3,0*
0 Add four circle primitives for the rounded corners*
1,1,$1+$1,$2,$3*
1,1,$1+$1,$4,$5*
1,1,$1+$1,$6,$7*
1,1,$1+$1,$8,$9*
0 Add four rect primitives between the rounded corners*
20,1,$1+$1,$2,$3,$4,$5,0*
20,1,$1+$1,$4,$5,$6,$7,0*
20,1,$1+$1,$6,$7,$8,$9,0*
20,1,$1+$1,$8,$9,$2,$3,0*%
G04 Aperture macros list end*
%ADD10RoundRect,0.250000X0.337500X0.475000X-0.337500X0.475000X-0.337500X-0.475000X0.337500X-0.475000X0*%
%ADD11RoundRect,0.250000X0.350000X0.450000X-0.350000X0.450000X-0.350000X-0.450000X0.350000X-0.450000X0*%
%ADD12RoundRect,0.250000X-0.450000X0.350000X-0.450000X-0.350000X0.450000X-0.350000X0.450000X0.350000X0*%
%ADD13RoundRect,0.150000X-0.477297X-0.689429X0.689429X0.477297X0.477297X0.689429X-0.689429X-0.477297X0*%
%ADD14RoundRect,0.175000X-0.175000X-0.425000X0.175000X-0.425000X0.175000X0.425000X-0.175000X0.425000X0*%
%ADD15RoundRect,0.190000X0.190000X0.410000X-0.190000X0.410000X-0.190000X-0.410000X0.190000X-0.410000X0*%
%ADD16RoundRect,0.200000X0.200000X0.400000X-0.200000X0.400000X-0.200000X-0.400000X0.200000X-0.400000X0*%
%ADD17RoundRect,0.175000X0.175000X0.425000X-0.175000X0.425000X-0.175000X-0.425000X0.175000X-0.425000X0*%
%ADD18RoundRect,0.190000X-0.190000X-0.410000X0.190000X-0.410000X0.190000X0.410000X-0.190000X0.410000X0*%
%ADD19RoundRect,0.200000X-0.200000X-0.400000X0.200000X-0.400000X0.200000X0.400000X-0.200000X0.400000X0*%
%ADD20O,1.100000X1.700000*%
%ADD21RoundRect,0.250000X-0.337500X-0.475000X0.337500X-0.475000X0.337500X0.475000X-0.337500X0.475000X0*%
%ADD22RoundRect,0.250000X0.565685X0.070711X0.070711X0.565685X-0.565685X-0.070711X-0.070711X-0.565685X0*%
%ADD23RoundRect,0.250000X-0.250000X-0.475000X0.250000X-0.475000X0.250000X0.475000X-0.250000X0.475000X0*%
%ADD24RoundRect,0.250000X-0.565685X-0.070711X-0.070711X-0.565685X0.565685X0.070711X0.070711X0.565685X0*%
%ADD25R,5.000000X5.000000*%
%ADD26R,4.000000X4.000000*%
%ADD27RoundRect,0.250000X-0.475000X0.337500X-0.475000X-0.337500X0.475000X-0.337500X0.475000X0.337500X0*%
%ADD28RoundRect,0.250000X-0.574524X-0.097227X-0.097227X-0.574524X0.574524X0.097227X0.097227X0.574524X0*%
%ADD29RoundRect,0.250000X0.450000X-0.325000X0.450000X0.325000X-0.450000X0.325000X-0.450000X-0.325000X0*%
%ADD30RoundRect,0.250000X-0.350000X-0.450000X0.350000X-0.450000X0.350000X0.450000X-0.350000X0.450000X0*%
%ADD31RoundRect,0.250000X-0.159099X0.512652X-0.512652X0.159099X0.159099X-0.512652X0.512652X-0.159099X0*%
%ADD32RoundRect,0.140000X-0.140000X0.205000X-0.140000X-0.205000X0.140000X-0.205000X0.140000X0.205000X0*%
%ADD33RoundRect,0.062500X-0.062500X0.337500X-0.062500X-0.337500X0.062500X-0.337500X0.062500X0.337500X0*%
G04 APERTURE END LIST*
D10*
%TO.C,C4*%
X44037500Y-63000000D03*
X41962500Y-63000000D03*
%TD*%
D11*
%TO.C,R5*%
X32500000Y-64000000D03*
X30500000Y-64000000D03*
%TD*%
D12*
%TO.C,R4*%
X43500000Y-67000000D03*
X43500000Y-69000000D03*
%TD*%
D13*
%TO.C,U1*%
X32555834Y-57056012D03*
X33453859Y-57954038D03*
X34351885Y-58852064D03*
X35249911Y-59750089D03*
X36147936Y-60648115D03*
X37045962Y-61546141D03*
X37943988Y-62444166D03*
X41444166Y-58943988D03*
X40546141Y-58045962D03*
X39648115Y-57147936D03*
X38750089Y-56249911D03*
X37852064Y-55351885D03*
X36954038Y-54453859D03*
X36056012Y-53555834D03*
%TD*%
D14*
%TO.C,J1*%
X49500000Y-68920000D03*
D15*
X51520000Y-68920000D03*
D16*
X52750000Y-68920000D03*
D17*
X50500000Y-68920000D03*
D18*
X48480000Y-68920000D03*
D19*
X47250000Y-68920000D03*
D20*
X45680000Y-69000000D03*
X45680000Y-72800000D03*
X54320000Y-69000000D03*
X54320000Y-72800000D03*
%TD*%
D12*
%TO.C,R1*%
X56500000Y-67000000D03*
X56500000Y-69000000D03*
%TD*%
D21*
%TO.C,R3*%
X52500000Y-63500000D03*
X54575000Y-63500000D03*
%TD*%
D22*
%TO.C,R7*%
X39914214Y-53914214D03*
X38500000Y-52500000D03*
%TD*%
D23*
%TO.C,C1*%
X52600000Y-66500000D03*
X54500000Y-66500000D03*
%TD*%
D24*
%TO.C,R8*%
X43378679Y-56292893D03*
X44792893Y-57707107D03*
%TD*%
D25*
%TO.C,BT1*%
X37050000Y-45000000D03*
X62950000Y-45000000D03*
D26*
X50000000Y-45000000D03*
%TD*%
D27*
%TO.C,R2*%
X58500000Y-66962500D03*
X58500000Y-69037500D03*
%TD*%
D28*
%TO.C,C3*%
X35000000Y-66000000D03*
X36467246Y-67467246D03*
%TD*%
D29*
%TO.C,D1*%
X43500000Y-73050000D03*
X43500000Y-71000000D03*
%TD*%
D27*
%TO.C,C5*%
X40000000Y-65425000D03*
X40000000Y-67500000D03*
%TD*%
D30*
%TO.C,R6*%
X30500000Y-61000000D03*
X32500000Y-61000000D03*
%TD*%
D31*
%TO.C,C2*%
X62000000Y-50500000D03*
X60656498Y-51843502D03*
%TD*%
D10*
%TO.C,C6*%
X45037500Y-61000000D03*
X42962500Y-61000000D03*
%TD*%
D32*
%TO.C,U2*%
X50400000Y-60325000D03*
X49700000Y-60325000D03*
X50400000Y-61175000D03*
X49700000Y-61175000D03*
D33*
X50800000Y-59300000D03*
X50300000Y-59300000D03*
X49800000Y-59300000D03*
X49300000Y-59300000D03*
X49300000Y-62200000D03*
X49800000Y-62200000D03*
X50300000Y-62200000D03*
X50800000Y-62200000D03*
%TD*%
M02*
