%TF.GenerationSoftware,KiCad,Pcbnew,10.0.3*%
%TF.CreationDate,2026-05-21T01:27:16+02:00*%
%TF.ProjectId,strobo,7374726f-626f-42e6-9b69-6361645f7063,rev?*%
%TF.SameCoordinates,Original*%
%TF.FileFunction,Copper,L1,Top*%
%TF.FilePolarity,Positive*%
%FSLAX46Y46*%
G04 Gerber Fmt 4.6, Leading zero omitted, Abs format (unit mm)*
G04 Created by KiCad (PCBNEW 10.0.3) date 2026-05-21 01:27:16*
%MOMM*%
%LPD*%
G01*
G04 APERTURE LIST*
G04 Aperture macros list*
%AMRoundRect*
0 Rectangle with rounded corners*
0 $1 Rounding radius*
0 $2 $3 $4 $5 $6 $7 $8 $9 X,Y pos of 4 corners*
0 Add a 4 corners polygon primitive as box body*
4,1,4,$2,$3,$4,$5,$6,$7,$8,$9,$2,$3,0*
0 Add four circle primitives for the rounded corners*
1,1,$1+$1,$2,$3*
1,1,$1+$1,$4,$5*
1,1,$1+$1,$6,$7*
1,1,$1+$1,$8,$9*
0 Add four rect primitives between the rounded corners*
20,1,$1+$1,$2,$3,$4,$5,0*
20,1,$1+$1,$4,$5,$6,$7,0*
20,1,$1+$1,$6,$7,$8,$9,0*
20,1,$1+$1,$8,$9,$2,$3,0*%
%AMHorizOval*
0 Thick line with rounded ends*
0 $1 width*
0 $2 $3 position (X,Y) of the first rounded end (center of the circle)*
0 $4 $5 position (X,Y) of the second rounded end (center of the circle)*
0 Add line between two ends*
20,1,$1,$2,$3,$4,$5,0*
0 Add two circle primitives to create the rounded ends*
1,1,$1,$2,$3*
1,1,$1,$4,$5*%
%AMRotRect*
0 Rectangle, with rotation*
0 The origin of the aperture is its center*
0 $1 length*
0 $2 width*
0 $3 Rotation angle, in degrees counterclockwise*
0 Add horizontal line*
21,1,$1,$2,0,0,$3*%
G04 Aperture macros list end*
%TA.AperFunction,SMDPad,CuDef*%
%ADD10RoundRect,0.250000X0.337500X0.475000X-0.337500X0.475000X-0.337500X-0.475000X0.337500X-0.475000X0*%
%TD*%
%TA.AperFunction,SMDPad,CuDef*%
%ADD11RoundRect,0.250000X0.350000X0.450000X-0.350000X0.450000X-0.350000X-0.450000X0.350000X-0.450000X0*%
%TD*%
%TA.AperFunction,SMDPad,CuDef*%
%ADD12RoundRect,0.250000X-0.450000X0.350000X-0.450000X-0.350000X0.450000X-0.350000X0.450000X0.350000X0*%
%TD*%
%TA.AperFunction,SMDPad,CuDef*%
%ADD13RoundRect,0.150000X-0.477297X-0.689429X0.689429X0.477297X0.477297X0.689429X-0.689429X-0.477297X0*%
%TD*%
%TA.AperFunction,SMDPad,CuDef*%
%ADD14RoundRect,0.175000X-0.175000X-0.425000X0.175000X-0.425000X0.175000X0.425000X-0.175000X0.425000X0*%
%TD*%
%TA.AperFunction,SMDPad,CuDef*%
%ADD15RoundRect,0.190000X0.190000X0.410000X-0.190000X0.410000X-0.190000X-0.410000X0.190000X-0.410000X0*%
%TD*%
%TA.AperFunction,SMDPad,CuDef*%
%ADD16RoundRect,0.200000X0.200000X0.400000X-0.200000X0.400000X-0.200000X-0.400000X0.200000X-0.400000X0*%
%TD*%
%TA.AperFunction,SMDPad,CuDef*%
%ADD17RoundRect,0.175000X0.175000X0.425000X-0.175000X0.425000X-0.175000X-0.425000X0.175000X-0.425000X0*%
%TD*%
%TA.AperFunction,SMDPad,CuDef*%
%ADD18RoundRect,0.190000X-0.190000X-0.410000X0.190000X-0.410000X0.190000X0.410000X-0.190000X0.410000X0*%
%TD*%
%TA.AperFunction,SMDPad,CuDef*%
%ADD19RoundRect,0.200000X-0.200000X-0.400000X0.200000X-0.400000X0.200000X0.400000X-0.200000X0.400000X0*%
%TD*%
%TA.AperFunction,ComponentPad*%
%ADD20O,1.100000X1.700000*%
%TD*%
%TA.AperFunction,SMDPad,CuDef*%
%ADD21RoundRect,0.250000X-0.337500X-0.475000X0.337500X-0.475000X0.337500X0.475000X-0.337500X0.475000X0*%
%TD*%
%TA.AperFunction,SMDPad,CuDef*%
%ADD22RoundRect,0.250000X0.565685X0.070711X0.070711X0.565685X-0.565685X-0.070711X-0.070711X-0.565685X0*%
%TD*%
%TA.AperFunction,SMDPad,CuDef*%
%ADD23RoundRect,0.250000X-0.250000X-0.475000X0.250000X-0.475000X0.250000X0.475000X-0.250000X0.475000X0*%
%TD*%
%TA.AperFunction,SMDPad,CuDef*%
%ADD24RoundRect,0.250000X-0.565685X-0.070711X-0.070711X-0.565685X0.565685X0.070711X0.070711X0.565685X0*%
%TD*%
%TA.AperFunction,SMDPad,CuDef*%
%ADD25R,5.000000X5.000000*%
%TD*%
%TA.AperFunction,SMDPad,CuDef*%
%ADD26R,4.000000X4.000000*%
%TD*%
%TA.AperFunction,SMDPad,CuDef*%
%ADD27RoundRect,0.250000X-0.475000X0.337500X-0.475000X-0.337500X0.475000X-0.337500X0.475000X0.337500X0*%
%TD*%
%TA.AperFunction,SMDPad,CuDef*%
%ADD28RoundRect,0.250000X-0.574524X-0.097227X-0.097227X-0.574524X0.574524X0.097227X0.097227X0.574524X0*%
%TD*%
%TA.AperFunction,SMDPad,CuDef*%
%ADD29RoundRect,0.250000X0.450000X-0.325000X0.450000X0.325000X-0.450000X0.325000X-0.450000X-0.325000X0*%
%TD*%
%TA.AperFunction,SMDPad,CuDef*%
%ADD30RoundRect,0.250000X-0.350000X-0.450000X0.350000X-0.450000X0.350000X0.450000X-0.350000X0.450000X0*%
%TD*%
%TA.AperFunction,SMDPad,CuDef*%
%ADD31RoundRect,0.250000X-0.159099X0.512652X-0.512652X0.159099X0.159099X-0.512652X0.512652X-0.159099X0*%
%TD*%
%TA.AperFunction,ComponentPad*%
%ADD32HorizOval,2.200000X-0.459619X0.459619X0.459619X-0.459619X0*%
%TD*%
%TA.AperFunction,ComponentPad*%
%ADD33RotRect,1.500000X2.500000X45.000000*%
%TD*%
%TA.AperFunction,ComponentPad*%
%ADD34HorizOval,1.500000X-0.353553X0.353553X0.353553X-0.353553X0*%
%TD*%
%TA.AperFunction,SMDPad,CuDef*%
%ADD35RoundRect,0.062500X-0.062500X0.337500X-0.062500X-0.337500X0.062500X-0.337500X0.062500X0.337500X0*%
%TD*%
%TA.AperFunction,HeatsinkPad*%
%ADD36R,1.400000X1.700000*%
%TD*%
%TA.AperFunction,ViaPad*%
%ADD37C,0.600000*%
%TD*%
%TA.AperFunction,Conductor*%
%ADD38C,0.200000*%
%TD*%
G04 APERTURE END LIST*
D10*
%TO.P,C4,1*%
%TO.N,GND*%
X44037500Y-63000000D03*
%TO.P,C4,2*%
%TO.N,Net-(U1A-CONT)*%
X41962500Y-63000000D03*
%TD*%
D11*
%TO.P,R5,1*%
%TO.N,+3.3V*%
X32500000Y-64000000D03*
%TO.P,R5,2*%
%TO.N,Net-(U1A-DISCH)*%
X30500000Y-64000000D03*
%TD*%
D12*
%TO.P,R4,1*%
%TO.N,Net-(U2-STAT)*%
X43500000Y-67000000D03*
%TO.P,R4,2*%
%TO.N,Net-(D1-A)*%
X43500000Y-69000000D03*
%TD*%
D13*
%TO.P,U1,1,DISCH_1*%
%TO.N,Net-(U1A-DISCH)*%
X32555834Y-57056012D03*
%TO.P,U1,2,THRES_2*%
%TO.N,Net-(U1A-THRES)*%
X33453859Y-57954038D03*
%TO.P,U1,3,CONT_3*%
%TO.N,Net-(U1A-CONT)*%
X34351885Y-58852064D03*
%TO.P,U1,4,~{RST}_4*%
%TO.N,+3.3V*%
X35249911Y-59750089D03*
%TO.P,U1,5,OUT_5*%
%TO.N,Net-(D3-K)*%
X36147936Y-60648115D03*
%TO.P,U1,6,TRIG_6*%
%TO.N,Net-(U1A-THRES)*%
X37045962Y-61546141D03*
%TO.P,U1,7,GND_7*%
%TO.N,GND*%
X37943988Y-62444166D03*
%TO.P,U1,8,TRIG_8*%
%TO.N,Net-(U1B-THRES)*%
X41444166Y-58943988D03*
%TO.P,U1,9,OUT_9*%
%TO.N,Net-(D2-K)*%
X40546141Y-58045962D03*
%TO.P,U1,10,~{RST}_10*%
%TO.N,+3.3V*%
X39648115Y-57147936D03*
%TO.P,U1,11,CONT_11*%
%TO.N,Net-(U1B-CONT)*%
X38750089Y-56249911D03*
%TO.P,U1,12,THRES_12*%
%TO.N,Net-(U1B-THRES)*%
X37852064Y-55351885D03*
%TO.P,U1,13,DISCH_13*%
%TO.N,Net-(U1B-DISCH)*%
X36954038Y-54453859D03*
%TO.P,U1,14,VCC_14*%
%TO.N,+3.3V*%
X36056012Y-53555834D03*
%TD*%
D14*
%TO.P,J1,A5,CC1_A5*%
%TO.N,Net-(J1-CC1)*%
X49500000Y-68920000D03*
D15*
%TO.P,J1,A9,VBUS_A9*%
%TO.N,Net-(C1-Pad1)*%
X51520000Y-68920000D03*
D16*
%TO.P,J1,A12,GND_A12*%
%TO.N,GND*%
X52750000Y-68920000D03*
D17*
%TO.P,J1,B5,CC2_B5*%
%TO.N,Net-(J1-CC2)*%
X50500000Y-68920000D03*
D18*
%TO.P,J1,B9,VBUS_B9*%
%TO.N,Net-(C1-Pad1)*%
X48480000Y-68920000D03*
D19*
%TO.P,J1,B12,GND_B12*%
%TO.N,GND*%
X47250000Y-68920000D03*
D20*
%TO.P,J1,SH,SHIELD_SH*%
X45680000Y-69000000D03*
X45680000Y-72800000D03*
X54320000Y-69000000D03*
X54320000Y-72800000D03*
%TD*%
D12*
%TO.P,R1,1*%
%TO.N,Net-(J1-CC2)*%
X56500000Y-67000000D03*
%TO.P,R1,2*%
%TO.N,GND*%
X56500000Y-69000000D03*
%TD*%
D21*
%TO.P,R3,1*%
%TO.N,Net-(U2-PROG)*%
X52500000Y-63500000D03*
%TO.P,R3,2*%
%TO.N,GND*%
X54575000Y-63500000D03*
%TD*%
D22*
%TO.P,R7,1*%
%TO.N,+3.3V*%
X39914214Y-53914214D03*
%TO.P,R7,2*%
%TO.N,Net-(U1B-DISCH)*%
X38500000Y-52500000D03*
%TD*%
D23*
%TO.P,C1,1*%
%TO.N,Net-(C1-Pad1)*%
X52600000Y-66500000D03*
%TO.P,C1,2*%
%TO.N,GND*%
X54500000Y-66500000D03*
%TD*%
D24*
%TO.P,R8,1*%
%TO.N,Net-(U1B-DISCH)*%
X43378679Y-56292893D03*
%TO.P,R8,2*%
%TO.N,Net-(U1B-THRES)*%
X44792893Y-57707107D03*
%TD*%
D25*
%TO.P,BT1,1,+_1*%
%TO.N,Net-(BT1-+)*%
X37050000Y-45000000D03*
X62950000Y-45000000D03*
D26*
%TO.P,BT1,2,-_2*%
%TO.N,GND*%
X50000000Y-45000000D03*
%TD*%
D27*
%TO.P,R2,1*%
%TO.N,Net-(J1-CC1)*%
X58500000Y-66962500D03*
%TO.P,R2,2*%
%TO.N,GND*%
X58500000Y-69037500D03*
%TD*%
D28*
%TO.P,C3,1*%
%TO.N,Net-(U1A-THRES)*%
X35000000Y-66000000D03*
%TO.P,C3,2*%
%TO.N,GND*%
X36467246Y-67467246D03*
%TD*%
D29*
%TO.P,D1,1,K_1*%
%TO.N,GND*%
X43500000Y-73050000D03*
%TO.P,D1,2,A_2*%
%TO.N,Net-(D1-A)*%
X43500000Y-71000000D03*
%TD*%
D27*
%TO.P,C5,1*%
%TO.N,Net-(U1B-THRES)*%
X40000000Y-65425000D03*
%TO.P,C5,2*%
%TO.N,GND*%
X40000000Y-67500000D03*
%TD*%
D30*
%TO.P,R6,1*%
%TO.N,Net-(U1A-DISCH)*%
X30500000Y-61000000D03*
%TO.P,R6,2*%
%TO.N,Net-(U1A-THRES)*%
X32500000Y-61000000D03*
%TD*%
D31*
%TO.P,C2,1*%
%TO.N,Net-(BT1-+)*%
X62000000Y-50500000D03*
%TO.P,C2,2*%
%TO.N,GND*%
X60656498Y-51843502D03*
%TD*%
D32*
%TO.P,SW1,*%
%TO.N,*%
X62600862Y-68399136D03*
X68399138Y-62600862D03*
D33*
%TO.P,SW1,1,A_1*%
%TO.N,unconnected-(SW1-A-Pad1)*%
X64085786Y-66914213D03*
D34*
%TO.P,SW1,2,B_2*%
%TO.N,Net-(BT1-+)*%
X65500000Y-65500000D03*
%TO.P,SW1,3,C_3*%
%TO.N,+3.3V*%
X66914214Y-64085785D03*
%TD*%
D10*
%TO.P,C6,1*%
%TO.N,GND*%
X45037500Y-61000000D03*
%TO.P,C6,2*%
%TO.N,Net-(U1B-CONT)*%
X42962500Y-61000000D03*
%TD*%
D35*
%TO.P,U2,1,V_{DD}_1*%
%TO.N,Net-(C1-Pad1)*%
X50800000Y-59300000D03*
%TO.P,U2,2,V_{DD}_2*%
X50300000Y-59300000D03*
%TO.P,U2,3,V_{BAT}_3*%
%TO.N,Net-(BT1-+)*%
X49800000Y-59300000D03*
%TO.P,U2,4,V_{BAT}_4*%
X49300000Y-59300000D03*
%TO.P,U2,5,STAT_5*%
%TO.N,Net-(U2-STAT)*%
X49300000Y-62200000D03*
%TO.P,U2,6,V_{SS}_6*%
%TO.N,GND*%
X49800000Y-62200000D03*
%TO.P,U2,7,NC_7*%
%TO.N,unconnected-(U2-NC-Pad7)*%
X50300000Y-62200000D03*
%TO.P,U2,8,PROG_8*%
%TO.N,Net-(U2-PROG)*%
X50800000Y-62200000D03*
D36*
%TO.P,U2,9*%
%TO.N,N/C*%
X50050000Y-60750000D03*
%TD*%
D37*
%TO.N,GND*%
X54575000Y-63500000D03*
X54500000Y-66500000D03*
%TO.N,Net-(U1A-CONT)*%
X34351885Y-58852064D03*
X40600000Y-62500000D03*
%TO.N,Net-(D2-K)*%
X32000000Y-54000000D03*
%TO.N,+3.3V*%
X39914214Y-53914214D03*
X36056012Y-53555834D03*
X35249911Y-59750089D03*
%TO.N,Net-(D3-K)*%
X66500000Y-38500000D03*
X68500000Y-57767950D03*
X74025000Y-50000000D03*
X30000000Y-48000000D03*
X29000000Y-38000000D03*
X29000000Y-62000000D03*
%TO.N,Net-(U1B-CONT)*%
X38500000Y-56500000D03*
X41500000Y-61000000D03*
%TO.N,Net-(C1-Pad1)*%
X51000000Y-58000000D03*
X53500000Y-66100000D03*
%TO.N,Net-(BT1-+)*%
X65500000Y-53500000D03*
X65500000Y-61000000D03*
X39500000Y-49000000D03*
X40500000Y-50000000D03*
%TD*%
%TO.N,GND*%
D38*
X57427274Y-62927274D02*
X57250000Y-62750000D01*
X60000000Y-66626981D02*
X60000000Y-69244605D01*
X46875000Y-67875000D02*
X47013119Y-68013119D01*
X57072725Y-55427274D02*
X60656498Y-51843502D01*
X56500000Y-69000000D02*
X57146446Y-69646446D01*
X59244605Y-70000000D02*
X59000000Y-70000000D01*
X56500000Y-56809956D02*
X56500000Y-55190043D01*
X47250000Y-68920000D02*
X45760000Y-68920000D01*
X56500000Y-69000000D02*
X54320000Y-69000000D01*
X42292893Y-65207106D02*
X40000000Y-67500000D01*
X47250000Y-66876981D02*
X47250000Y-68863431D01*
X42775000Y-73050000D02*
X43146446Y-73050000D01*
X58000000Y-70000000D02*
X59000000Y-70000000D01*
X54320000Y-69000000D02*
X54320000Y-72800000D01*
X45969669Y-67500000D02*
X45353553Y-67500000D01*
X40572725Y-71572725D02*
X41537347Y-72537347D01*
X56500000Y-55190043D02*
X56500000Y-54126981D01*
X43750000Y-72800000D02*
X44000000Y-72550000D01*
X58572725Y-64072725D02*
X59203103Y-64703103D01*
X49446446Y-63553553D02*
X48046896Y-64953103D01*
X44646446Y-63000000D02*
X44037500Y-63000000D01*
X52600000Y-68207842D02*
X52600000Y-68550000D01*
X45680000Y-69056568D02*
X45680000Y-72623223D01*
X45353553Y-63000000D02*
X45646446Y-63000000D01*
X56500000Y-60939339D02*
X56500000Y-56809956D01*
X40000000Y-70190043D02*
X40000000Y-67500000D01*
X53282842Y-67525000D02*
X54457322Y-67525000D01*
X55703103Y-52203103D02*
X50530330Y-47030330D01*
X45646446Y-61000000D02*
X45037500Y-61000000D01*
X52633327Y-69366672D02*
X52265000Y-69735000D01*
X45323223Y-64176776D02*
X45250000Y-64250000D01*
X47600000Y-69870000D02*
X47425000Y-69695000D01*
X48444974Y-70220000D02*
X51094106Y-70220000D01*
X39427274Y-70427274D02*
X40572725Y-71572725D01*
X54575000Y-63500000D02*
X57190043Y-63500000D01*
X37221994Y-63166160D02*
X37943988Y-62444166D01*
X44500000Y-71342893D02*
X44500000Y-68353553D01*
X46500000Y-61853553D02*
X46500000Y-62146446D01*
X36500000Y-64909207D02*
X36500000Y-67500000D01*
X44646446Y-63000000D02*
X45353553Y-63000000D01*
X54320000Y-69000000D02*
X52830000Y-69000000D01*
X49800000Y-62700000D02*
X49800000Y-62200000D01*
X45253223Y-73050000D02*
X43853553Y-73050000D01*
X44000000Y-64500000D02*
X44646446Y-64500000D01*
X45250000Y-63250000D02*
X45323223Y-63323223D01*
X54500000Y-66500000D02*
X54500000Y-67482322D01*
X39427274Y-70427274D02*
X36500000Y-67500000D01*
X58572725Y-64072725D02*
X57427274Y-62927274D01*
X55703103Y-52203103D02*
G75*
G02*
X56500005Y-54126981I-1923903J-1923897D01*
G01*
X45250000Y-63250000D02*
G75*
G02*
X45353553Y-62999887I103600J103600D01*
G01*
X52800000Y-67725000D02*
G75*
G02*
X53282842Y-67525018I482800J-482800D01*
G01*
X56500000Y-56809956D02*
G75*
G02*
X57072749Y-55427298I1955400J-44D01*
G01*
X45500000Y-63750000D02*
G75*
G03*
X45323233Y-63323213I-603600J0D01*
G01*
X58000000Y-70000000D02*
G75*
G03*
X58500000Y-69500000I0J500000D01*
G01*
X59244605Y-70000000D02*
G75*
G03*
X59778748Y-69778748I-5J755400D01*
G01*
X52800000Y-67725000D02*
G75*
G03*
X52600018Y-68207842I482800J-482800D01*
G01*
X56500000Y-55190043D02*
G75*
G03*
X57072710Y-55427259I335500J43D01*
G01*
X40000000Y-70190043D02*
G75*
G03*
X40572748Y-71572702I1955400J43D01*
G01*
X45323223Y-64176776D02*
G75*
G03*
X45499986Y-63750000I-426823J426776D01*
G01*
X59000000Y-70000000D02*
G75*
G02*
X58500000Y-69500000I0J500000D01*
G01*
X47013119Y-68013119D02*
G75*
G02*
X47249989Y-68585000I-571919J-571881D01*
G01*
X57190043Y-63500000D02*
G75*
G03*
X57427258Y-62927290I-43J335500D01*
G01*
X58000000Y-70000000D02*
G75*
G02*
X57146447Y-69646445I0J1207100D01*
G01*
X47600000Y-69870000D02*
G75*
G03*
X48444974Y-70220010I845000J845000D01*
G01*
X42775000Y-73050000D02*
G75*
G02*
X41537348Y-72537346I0J1750300D01*
G01*
X51094106Y-70220000D02*
G75*
G03*
X52264998Y-69734998I-6J1655900D01*
G01*
X54487500Y-67512500D02*
G75*
G02*
X54457322Y-67525009I-30200J30200D01*
G01*
X46250000Y-62750000D02*
G75*
G02*
X45646446Y-63000019I-603600J603600D01*
G01*
X44750000Y-67750000D02*
G75*
G03*
X44500022Y-68353553I603500J-603500D01*
G01*
X46500000Y-61853553D02*
G75*
G03*
X46249986Y-61250014I-853600J-47D01*
G01*
X44646446Y-63000000D02*
G75*
G02*
X45250016Y-63249984I54J-853500D01*
G01*
X47250000Y-69272512D02*
G75*
G03*
X47425004Y-69694996I597500J12D01*
G01*
X60000000Y-66626981D02*
G75*
G03*
X59203099Y-64703107I-2720800J-19D01*
G01*
X58572725Y-64072725D02*
G75*
G03*
X57190043Y-63499967I-1382725J-1382675D01*
G01*
X44000000Y-64500000D02*
G75*
G03*
X42292896Y-65207109I0J-2414200D01*
G01*
X44750000Y-67750000D02*
G75*
G02*
X45353553Y-67500022I603500J-603500D01*
G01*
X44500000Y-71342893D02*
G75*
G02*
X44000002Y-72550002I-1707100J-7D01*
G01*
X54500000Y-67482322D02*
G75*
G02*
X54487493Y-67512493I-42700J22D01*
G01*
X48046896Y-64953103D02*
G75*
G03*
X47249994Y-66876981I1923904J-1923897D01*
G01*
X59778750Y-69778750D02*
G75*
G03*
X60000002Y-69244605I-534150J534150D01*
G01*
X50530330Y-47030330D02*
G75*
G02*
X50000012Y-45750000I1280370J1280330D01*
G01*
X46250000Y-61250000D02*
G75*
G03*
X45646446Y-61000022I-603500J-603500D01*
G01*
X39427274Y-70427274D02*
G75*
G03*
X40000022Y-70190043I237226J237274D01*
G01*
X45969669Y-67500000D02*
G75*
G02*
X46875009Y-67874991I31J-1280300D01*
G01*
X49446446Y-63553553D02*
G75*
G03*
X49800001Y-62700000I-853546J853553D01*
G01*
X37221994Y-63166160D02*
G75*
G03*
X36499993Y-64909207I1743006J-1743040D01*
G01*
X46250000Y-62750000D02*
G75*
G03*
X46500019Y-62146446I-603600J603600D01*
G01*
X44646446Y-64500000D02*
G75*
G03*
X45249986Y-64249986I-46J853600D01*
G01*
X56500000Y-60939339D02*
G75*
G03*
X57250012Y-62749988I2560700J39D01*
G01*
%TO.N,Net-(U1A-CONT)*%
X40850000Y-62750000D02*
X40600000Y-62500000D01*
X41453553Y-63000000D02*
X41962500Y-63000000D01*
X40850000Y-62750000D02*
G75*
G03*
X41453553Y-63000019I603600J603600D01*
G01*
%TO.N,Net-(D2-K)*%
X39296051Y-58500000D02*
X39771049Y-58500000D01*
X33000000Y-54000000D02*
X32000000Y-54000000D01*
X34707106Y-54707106D02*
X37937106Y-57937106D01*
X37937106Y-57937106D02*
G75*
G03*
X39296051Y-58500046I1358994J1358906D01*
G01*
X33000000Y-54000000D02*
G75*
G02*
X34707103Y-54707109I0J-2414200D01*
G01*
X40319122Y-58272981D02*
G75*
G02*
X39771049Y-58500033I-548122J548081D01*
G01*
%TO.N,+3.3V*%
X51875556Y-42699998D02*
X52113087Y-42699997D01*
X32027665Y-62381218D02*
X31937721Y-62291269D01*
X51875556Y-42699998D02*
X51517385Y-42699999D01*
X32072334Y-62425887D02*
X32094669Y-62448222D01*
X33613000Y-56946369D02*
X33653423Y-56905946D01*
X48038827Y-42700000D02*
X51159214Y-42700000D01*
X33350691Y-59653352D02*
X33334644Y-59637307D01*
X40718553Y-54718553D02*
X39914214Y-53914214D01*
X66222184Y-62904415D02*
X66222184Y-57404797D01*
X33613000Y-56946369D02*
X33532153Y-57027214D01*
X32027665Y-62381218D02*
X32072334Y-62425887D01*
X33205255Y-59279542D02*
X33205258Y-59324996D01*
X32396896Y-58162472D02*
X33532153Y-57027214D01*
X33350691Y-59653352D02*
X33382784Y-59685444D01*
X51517385Y-42699999D02*
X51159214Y-42700000D01*
X31600000Y-60086350D02*
X31600000Y-61475915D01*
X46114949Y-43496896D02*
X36056012Y-53555834D01*
X65425287Y-55480919D02*
X53020029Y-43075661D01*
X33382784Y-59685444D02*
X33907273Y-60209933D01*
X34505126Y-57070815D02*
X34340264Y-56905950D01*
X34505123Y-57751299D02*
X33366738Y-58889686D01*
X40718553Y-56077497D02*
X39648115Y-57147936D01*
X66222184Y-62904415D02*
G75*
G03*
X66568197Y-63739772I1181416J15D01*
G01*
X34348669Y-60392766D02*
G75*
G03*
X34790088Y-60209957I31J624266D01*
G01*
X34348669Y-60392766D02*
G75*
G02*
X33907280Y-60209926I31J624266D01*
G01*
X48038827Y-42700000D02*
G75*
G03*
X46114930Y-43496877I-27J-2720800D01*
G01*
X34505126Y-57070815D02*
G75*
G02*
X34505168Y-57751343I-340226J-340285D01*
G01*
X32396896Y-58162472D02*
G75*
G03*
X31600043Y-60086350I1923904J-1923828D01*
G01*
X33205258Y-59324996D02*
G75*
G03*
X33334617Y-59637334I441742J-4D01*
G01*
X31600000Y-61475915D02*
G75*
G03*
X31937730Y-62291260I1153100J15D01*
G01*
X52113087Y-42699997D02*
G75*
G02*
X53020032Y-43075658I13J-1282603D01*
G01*
X33205255Y-59279542D02*
G75*
G02*
X33366716Y-58889664I551345J42D01*
G01*
X34340264Y-56905950D02*
G75*
G03*
X33653382Y-56905904I-343464J-343450D01*
G01*
X41000000Y-55398025D02*
G75*
G03*
X40718562Y-54718544I-960900J25D01*
G01*
X41000000Y-55398025D02*
G75*
G02*
X40718537Y-56077481I-960900J25D01*
G01*
X66222184Y-57404797D02*
G75*
G03*
X65425288Y-55480918I-2720784J-3D01*
G01*
X32094669Y-62448222D02*
G75*
G02*
X32500012Y-63426776I-978569J-978578D01*
G01*
%TO.N,Net-(U1A-DISCH)*%
X30500000Y-60055923D02*
X30500000Y-61000000D01*
X30500000Y-61000000D02*
X30500000Y-64000000D01*
X31167563Y-58444282D02*
X32555834Y-57056012D01*
X31167563Y-58444282D02*
G75*
G03*
X30500015Y-60055923I1611637J-1611618D01*
G01*
%TO.N,Net-(U2-STAT)*%
X49123223Y-62876776D02*
X47796896Y-64203103D01*
X43853553Y-65646446D02*
X44000000Y-65500000D01*
X45207106Y-65000000D02*
X45873018Y-65000000D01*
X49123223Y-62876776D02*
G75*
G03*
X49299986Y-62450000I-426823J426776D01*
G01*
X45207106Y-65000000D02*
G75*
G03*
X43999998Y-65499998I-6J-1707100D01*
G01*
X43500000Y-66500000D02*
G75*
G02*
X43853555Y-65646448I1207100J0D01*
G01*
X45873018Y-65000000D02*
G75*
G03*
X47796893Y-64203100I-18J2720800D01*
G01*
%TO.N,Net-(D1-A)*%
X43500000Y-71000000D02*
X43500000Y-69000000D01*
%TO.N,Net-(U1A-THRES)*%
X32500000Y-61092103D02*
X34292893Y-62884996D01*
X35000000Y-64592102D02*
X35000000Y-66000000D01*
X35707106Y-62884996D02*
X37045962Y-61546141D01*
X32500000Y-59582377D02*
X32500000Y-61092103D01*
X35000000Y-64592102D02*
G75*
G02*
X35707108Y-62884998I2414200J2D01*
G01*
X35000000Y-64592102D02*
G75*
G03*
X34292892Y-62884997I-2414200J2D01*
G01*
X35707106Y-62884996D02*
G75*
G02*
X34292893Y-62884996I-707106J707107D01*
G01*
X32500000Y-59582377D02*
G75*
G02*
X32976949Y-58430987I1628300J-23D01*
G01*
%TO.N,Net-(D3-K)*%
X69323223Y-35323223D02*
X64853553Y-30853553D01*
X68500000Y-57767950D02*
X68500000Y-57883975D01*
X39250000Y-28250000D02*
X39176776Y-28323223D01*
X27000000Y-42707106D02*
X27000000Y-43000000D01*
X67353553Y-38000000D02*
X67792893Y-38000000D01*
X72500000Y-41500000D02*
X72500000Y-41646446D01*
X31353553Y-34646446D02*
X35146446Y-30853553D01*
X36853553Y-30146446D02*
X38323223Y-28676776D01*
X70146446Y-36646446D02*
X69588388Y-36088388D01*
X69500000Y-36125000D02*
X69500000Y-36292893D01*
X69000000Y-58500000D02*
X68582042Y-58082042D01*
X70853553Y-38353553D02*
X71146446Y-38646446D01*
X30969669Y-55530329D02*
X28707106Y-57792893D01*
X42707106Y-27000000D02*
X45939339Y-27000000D01*
X29000000Y-38500000D02*
X29000000Y-38000000D01*
X29000000Y-62000000D02*
X29000000Y-61750000D01*
X74000000Y-49957322D02*
X74000000Y-46353553D01*
X59707106Y-28000000D02*
X60146446Y-28000000D01*
X28000000Y-59500000D02*
X28000000Y-59792893D01*
X27500000Y-41500000D02*
X27646446Y-41353553D01*
X72146446Y-40646446D02*
X71853553Y-40353553D01*
X60750000Y-28250000D02*
X60823223Y-28323223D01*
X63146446Y-30146446D02*
X61676776Y-28676776D01*
X74025000Y-53603768D02*
X74025000Y-50000000D01*
X73000000Y-57500000D02*
X73000000Y-57353553D01*
X74012500Y-49987500D02*
X74025000Y-50000000D01*
X30750000Y-54250000D02*
X30969669Y-54469669D01*
X50439339Y-25500000D02*
X49560660Y-25500000D01*
X69500000Y-36125000D02*
X69500000Y-35875000D01*
X73000000Y-43146446D02*
X73000000Y-42853553D01*
X73500000Y-56146446D02*
X73500000Y-54871231D01*
X28500000Y-61000000D02*
X28823223Y-61323223D01*
X30000000Y-47500000D02*
X30000000Y-48000000D01*
X54060660Y-27000000D02*
X57292893Y-27000000D01*
X69500000Y-35750000D02*
X69500000Y-35875000D01*
X72499999Y-58499999D02*
X72646446Y-58353553D01*
X30646446Y-36353553D02*
X29000000Y-38000000D01*
X30000000Y-48000000D02*
X30000000Y-52439339D01*
X27707106Y-44707106D02*
X29646446Y-46646446D01*
X66500000Y-38500000D02*
X66750000Y-38250000D01*
X73500000Y-44353553D02*
X73500000Y-45146446D01*
X71292893Y-59000000D02*
X70207106Y-59000000D01*
X36500000Y-60047104D02*
X36500000Y-59398025D01*
X39853553Y-28000000D02*
X40292893Y-28000000D01*
X35865000Y-57865000D02*
X33530330Y-55530330D01*
X28353553Y-39646446D02*
X28646446Y-39353553D01*
X60146446Y-28000000D02*
G75*
G02*
X60750016Y-28249984I54J-853500D01*
G01*
X69000000Y-37500000D02*
G75*
G02*
X67792893Y-37999997I-1207100J1207100D01*
G01*
X29000000Y-61750000D02*
G75*
G03*
X28823233Y-61323213I-603600J0D01*
G01*
X69000000Y-37500000D02*
G75*
G03*
X69499997Y-36292893I-1207100J1207100D01*
G01*
X59707106Y-28000000D02*
G75*
G02*
X58499998Y-27500002I-6J1707100D01*
G01*
X71500000Y-39500000D02*
G75*
G03*
X71853554Y-40353552I1207100J0D01*
G01*
X70146446Y-36646446D02*
G75*
G02*
X70500002Y-37500000I-853546J-853554D01*
G01*
X32250000Y-55000000D02*
G75*
G02*
X30969661Y-54469677I0J1810700D01*
G01*
X69588388Y-36088388D02*
G75*
G03*
X69500040Y-36125000I-36588J-36612D01*
G01*
X32250000Y-55000000D02*
G75*
G02*
X33530338Y-55530322I0J-1810700D01*
G01*
X35865000Y-57865000D02*
G75*
G02*
X36499989Y-59398025I-1533000J-1533000D01*
G01*
X27707106Y-44707106D02*
G75*
G02*
X26999996Y-43000000I1707094J1707106D01*
G01*
X28000000Y-59500000D02*
G75*
G02*
X28707109Y-57792896I2414200J0D01*
G01*
X63146446Y-30146446D02*
G75*
G03*
X64000000Y-30500002I853554J853546D01*
G01*
X67353553Y-38000000D02*
G75*
G03*
X66749984Y-38249984I-53J-853500D01*
G01*
X27000000Y-42707106D02*
G75*
G02*
X27499998Y-41499998I1707100J6D01*
G01*
X72146446Y-40646446D02*
G75*
G02*
X72500002Y-41500000I-853546J-853554D01*
G01*
X29000000Y-38500000D02*
G75*
G02*
X28646445Y-39353552I-1207100J0D01*
G01*
X28000000Y-40500000D02*
G75*
G02*
X27646445Y-41353552I-1207100J0D01*
G01*
X73500000Y-56146446D02*
G75*
G02*
X73249986Y-56749986I-853600J46D01*
G01*
X70853553Y-38353553D02*
G75*
G02*
X70499998Y-37500000I853547J853553D01*
G01*
X28500000Y-61000000D02*
G75*
G02*
X28000003Y-59792893I1207100J1207100D01*
G01*
X73750000Y-45750000D02*
G75*
G02*
X73500022Y-45146446I603500J603500D01*
G01*
X72750000Y-42250000D02*
G75*
G02*
X73000019Y-42853553I-603600J-603600D01*
G01*
X47750000Y-26250000D02*
G75*
G02*
X45939339Y-27000016I-1810700J1810700D01*
G01*
X69500000Y-35750000D02*
G75*
G03*
X69323233Y-35323213I-603600J0D01*
G01*
X30750000Y-54250000D02*
G75*
G02*
X29999984Y-52439339I1810700J1810700D01*
G01*
X72499999Y-58499999D02*
G75*
G02*
X71292893Y-58999996I-1207099J1207099D01*
G01*
X72750000Y-42250000D02*
G75*
G02*
X72500022Y-41646446I603500J603500D01*
G01*
X69000000Y-58500000D02*
G75*
G03*
X70207106Y-58999997I1207100J1207100D01*
G01*
X71500000Y-39500000D02*
G75*
G03*
X71146445Y-38646447I-1207100J0D01*
G01*
X32250000Y-55000000D02*
G75*
G03*
X30969662Y-55530322I0J-1810700D01*
G01*
X30000000Y-47500000D02*
G75*
G03*
X29646445Y-46646447I-1207100J0D01*
G01*
X36000000Y-30500000D02*
G75*
G03*
X35146448Y-30853555I0J-1207100D01*
G01*
X73250000Y-56750000D02*
G75*
G03*
X73000022Y-57353553I603500J-603500D01*
G01*
X28000000Y-40500000D02*
G75*
G02*
X28353555Y-39646448I1207100J0D01*
G01*
X38750000Y-28500000D02*
G75*
G03*
X38323235Y-28676788I0J-603500D01*
G01*
X74000000Y-49957322D02*
G75*
G03*
X74012507Y-49987493I42700J22D01*
G01*
X41500000Y-27500000D02*
G75*
G02*
X40292893Y-27999997I-1207100J1207100D01*
G01*
X31000000Y-35500000D02*
G75*
G02*
X31353555Y-34646448I1207100J0D01*
G01*
X64853553Y-30853553D02*
G75*
G03*
X64000000Y-30499998I-853553J-853547D01*
G01*
X42707106Y-27000000D02*
G75*
G03*
X41499998Y-27499998I-6J-1707100D01*
G01*
X69500000Y-35750000D02*
G75*
G03*
X69323233Y-35323213I-603600J0D01*
G01*
X36000000Y-30500000D02*
G75*
G03*
X36853552Y-30146445I0J1207100D01*
G01*
X73000000Y-43146446D02*
G75*
G03*
X73249984Y-43750016I853500J-54D01*
G01*
X47750000Y-26250000D02*
G75*
G02*
X49560660Y-25499954I1810700J-1810600D01*
G01*
X61250000Y-28500000D02*
G75*
G02*
X60823213Y-28323233I0J603600D01*
G01*
X73762500Y-54237500D02*
G75*
G03*
X74024987Y-53603768I-633700J633700D01*
G01*
X61250000Y-28500000D02*
G75*
G02*
X61676765Y-28676787I0J-603500D01*
G01*
X38750000Y-28500000D02*
G75*
G03*
X39176786Y-28323233I0J603600D01*
G01*
X50439339Y-25500000D02*
G75*
G02*
X52249988Y-26250012I-39J-2560700D01*
G01*
X72646446Y-58353553D02*
G75*
G03*
X73000001Y-57500000I-853546J853553D01*
G01*
X69500000Y-35875000D02*
G75*
G03*
X69588383Y-36088393I301800J0D01*
G01*
X31000000Y-35500000D02*
G75*
G02*
X30646445Y-36353552I-1207100J0D01*
G01*
X73750000Y-45750000D02*
G75*
G02*
X74000019Y-46353553I-603600J-603600D01*
G01*
X73762500Y-54237500D02*
G75*
G03*
X73500013Y-54871231I633700J-633700D01*
G01*
X58500000Y-27500000D02*
G75*
G03*
X57292893Y-27000003I-1207100J-1207100D01*
G01*
X30969669Y-55530329D02*
G75*
G03*
X30969668Y-54469670I-530369J530329D01*
G01*
X68582042Y-58082042D02*
G75*
G02*
X68500015Y-57883975I198058J198042D01*
G01*
X39250000Y-28250000D02*
G75*
G02*
X39853553Y-28000022I603500J-603500D01*
G01*
X52250000Y-26250000D02*
G75*
G03*
X54060660Y-27000016I1810700J1810700D01*
G01*
X73500000Y-44353553D02*
G75*
G03*
X73249986Y-43750014I-853600J-47D01*
G01*
%TO.N,Net-(U1B-THRES)*%
X41500000Y-54853031D02*
X41500000Y-56146446D01*
X39982018Y-52793630D02*
X40027817Y-52793631D01*
X40861130Y-59527023D02*
X40722083Y-59666071D01*
X39062262Y-53493370D02*
X39606439Y-52949194D01*
X40481589Y-52981589D02*
X40896815Y-53396815D01*
X39062262Y-53493370D02*
X38983424Y-53572204D01*
X38793637Y-53974587D02*
X38793631Y-54086160D01*
X40000000Y-61409333D02*
X40000000Y-65425000D01*
X42000000Y-57995120D02*
X42000000Y-57353553D01*
X43439339Y-58500000D02*
X42202100Y-58500000D01*
X38944004Y-53611620D02*
X38983424Y-53572204D01*
X38564417Y-54639531D02*
X37852064Y-55351885D01*
X44396446Y-58103553D02*
G75*
G02*
X43439339Y-58500014I-957146J957153D01*
G01*
X41750000Y-56750000D02*
G75*
G02*
X41500022Y-56146446I603500J603500D01*
G01*
X41666160Y-58721994D02*
G75*
G02*
X42202100Y-58499990I535940J-535906D01*
G01*
X41500000Y-54853031D02*
G75*
G03*
X40896831Y-53396799I-2059400J31D01*
G01*
X41750000Y-56750000D02*
G75*
G02*
X42000019Y-57353553I-603600J-603600D01*
G01*
X38944004Y-53611620D02*
G75*
G03*
X38793657Y-53974587I362996J-362980D01*
G01*
X39982018Y-52793630D02*
G75*
G03*
X39606429Y-52949184I-18J-531170D01*
G01*
X38564417Y-54639531D02*
G75*
G03*
X38793589Y-54086160I-553417J553331D01*
G01*
X42000000Y-57995120D02*
G75*
G02*
X41722080Y-58666068I-948900J20D01*
G01*
X40000000Y-61409333D02*
G75*
G02*
X40722076Y-59666064I2465300J33D01*
G01*
X40481589Y-52981589D02*
G75*
G03*
X40027817Y-52793630I-453789J-453811D01*
G01*
%TO.N,Net-(U1B-CONT)*%
X41500000Y-61000000D02*
X42962500Y-61000000D01*
%TO.N,Net-(U1B-DISCH)*%
X42500000Y-54707107D02*
X42500000Y-54792894D01*
X42939339Y-55853553D02*
X43378679Y-56292893D01*
X37823223Y-53676776D02*
X37078704Y-54421295D01*
X41513173Y-53013173D02*
X41999999Y-53499999D01*
X38870710Y-52282843D02*
X39750000Y-52282843D01*
X41513173Y-53013173D02*
G75*
G03*
X39750000Y-52282829I-1763173J-1763127D01*
G01*
X42500000Y-54707107D02*
G75*
G03*
X42000001Y-53499997I-1707100J7D01*
G01*
X38176776Y-52823223D02*
G75*
G03*
X37999984Y-53250000I426724J-426777D01*
G01*
X37823223Y-53676776D02*
G75*
G03*
X37999986Y-53250000I-426823J426776D01*
G01*
X42500000Y-54792894D02*
G75*
G03*
X42939336Y-55853556I1500000J-6D01*
G01*
%TO.N,Net-(J1-CC1)*%
X58500000Y-65853553D02*
X58500000Y-67000000D01*
X49500000Y-66707106D02*
X49500000Y-68920000D01*
X57646446Y-65000000D02*
X51207106Y-65000000D01*
X58500000Y-65853553D02*
G75*
G03*
X58249986Y-65250014I-853600J-47D01*
G01*
X50000000Y-65500000D02*
G75*
G02*
X51207106Y-65000003I1207100J-1207100D01*
G01*
X57646446Y-65000000D02*
G75*
G02*
X58250016Y-65249984I54J-853500D01*
G01*
X50000000Y-65500000D02*
G75*
G03*
X49500003Y-66707106I1207100J-1207100D01*
G01*
%TO.N,Net-(C1-Pad1)*%
X51520000Y-68342500D02*
X51520000Y-68527500D01*
X50650000Y-58650000D02*
X50600000Y-58600000D01*
X50300000Y-58841421D02*
X50300000Y-59300000D01*
X51520000Y-68342500D02*
X51520000Y-68250000D01*
X53500000Y-66100000D02*
X53276776Y-66323223D01*
X51007867Y-69820000D02*
X48992132Y-69820000D01*
X50600000Y-58400000D02*
X50400000Y-58600000D01*
X51993761Y-67106238D02*
X52423223Y-66676776D01*
X50600000Y-58400000D02*
X51000000Y-58000000D01*
X48480000Y-69307867D02*
G75*
G03*
X48629991Y-69670009I512100J-33D01*
G01*
X51993761Y-67106238D02*
G75*
G03*
X51519993Y-68250000I1143739J-1143762D01*
G01*
X52850000Y-66500000D02*
G75*
G03*
X53276786Y-66323233I0J603600D01*
G01*
X48992132Y-69820000D02*
G75*
G02*
X48629991Y-69670009I-32J512100D01*
G01*
X50650000Y-58650000D02*
G75*
G02*
X50799987Y-59012132I-362100J-362100D01*
G01*
X50600000Y-58400000D02*
G75*
G03*
X50600000Y-58600000I100000J-100000D01*
G01*
X51007867Y-69820000D02*
G75*
G03*
X51370009Y-69670009I33J512100D01*
G01*
X50600000Y-58600000D02*
G75*
G03*
X50400000Y-58600000I-100000J-99998D01*
G01*
X50300000Y-58841421D02*
G75*
G02*
X50399994Y-58599994I341400J21D01*
G01*
X51370000Y-69670000D02*
G75*
G03*
X51519987Y-69307867I-362100J362100D01*
G01*
%TO.N,Net-(J1-CC2)*%
X55475735Y-65400000D02*
X53776757Y-65400000D01*
X53776757Y-65400000D02*
X53226981Y-65400001D01*
X50500000Y-67960000D02*
X50500000Y-68920000D01*
X56500000Y-66424264D02*
X56500000Y-67000000D01*
X51272032Y-66227965D02*
X51209892Y-66290106D01*
X51303102Y-66196895D02*
X51272032Y-66227965D01*
X53089537Y-65400001D02*
X52814649Y-65400003D01*
X51178822Y-66321177D02*
X51209892Y-66290106D01*
X51691844Y-65808156D02*
X51427383Y-66072614D01*
X51427383Y-66072614D02*
X51303102Y-66196895D01*
X52814649Y-65400003D02*
X52677205Y-65400004D01*
X53089537Y-65400001D02*
X53226981Y-65400001D01*
X50500000Y-67960000D02*
G75*
G02*
X51178832Y-66321187I2317600J0D01*
G01*
X56200000Y-65700000D02*
G75*
G03*
X55475735Y-65399985I-724300J-724300D01*
G01*
X51691844Y-65808156D02*
G75*
G02*
X52677205Y-65400005I985356J-985344D01*
G01*
X56200000Y-65700000D02*
G75*
G02*
X56500015Y-66424264I-724300J-724300D01*
G01*
%TO.N,Net-(U2-PROG)*%
X50800000Y-63158578D02*
X50800000Y-62200000D01*
X51141421Y-63500000D02*
X52500000Y-63500000D01*
X51141421Y-63500000D02*
G75*
G02*
X50899994Y-63400006I-21J341400D01*
G01*
X50800000Y-63158578D02*
G75*
G03*
X50899994Y-63400006I341400J-22D01*
G01*
%TO.N,Net-(BT1-+)*%
X48850000Y-58350000D02*
X49150000Y-58650000D01*
X65500000Y-52800000D02*
X65500000Y-53500000D01*
X62475000Y-50025000D02*
X62000000Y-50500000D01*
X62950000Y-48878248D02*
X62950000Y-45035355D01*
X63425000Y-50025000D02*
X65005025Y-51605025D01*
X37598007Y-47098007D02*
X39500000Y-49000000D01*
X65500000Y-61000000D02*
X65500000Y-65500000D01*
X48850000Y-58350000D02*
X40500000Y-50000000D01*
X59123018Y-42300000D02*
X40876981Y-42300000D01*
X49287867Y-58500000D02*
X49212132Y-58500000D01*
X49150000Y-58650000D02*
G75*
G02*
X49212132Y-58500077I62100J62100D01*
G01*
X49300000Y-59012132D02*
G75*
G03*
X49150009Y-58649991I-512100J32D01*
G01*
X49287867Y-58500000D02*
G75*
G02*
X49650009Y-58649991I33J-512100D01*
G01*
X49800000Y-59012132D02*
G75*
G03*
X49650009Y-58649991I-512100J32D01*
G01*
X38953103Y-43096896D02*
G75*
G02*
X40876981Y-42299994I1923897J-1923904D01*
G01*
X61046896Y-43096896D02*
G75*
G03*
X59123018Y-42299995I-1923896J-1923904D01*
G01*
X63425000Y-50025000D02*
G75*
G02*
X62949980Y-48878248I1146800J1146800D01*
G01*
X65500000Y-52800000D02*
G75*
G03*
X65005035Y-51605015I-1690000J0D01*
G01*
X48850000Y-58350000D02*
G75*
G03*
X49212132Y-58499987I362100J362100D01*
G01*
X62475000Y-50025000D02*
G75*
G03*
X62950020Y-48878248I-1146800J1146800D01*
G01*
X63425000Y-50025000D02*
G75*
G03*
X62475000Y-50025000I-475000J-474998D01*
G01*
%TD*%
M02*
